<mxfile host="app.diagrams.net" modified="2022-01-08T03:41:38.440Z" agent="5.0 (Windows NT 10.0; Win64; x64) AppleWebKit/537.36 (KHTML, like Gecko) Chrome/96.0.4664.137 Safari/537.36" etag="SNz3CQQH1joliCpsbgXi" version="16.2.4" type="github">
  <diagram id="uitrMO1AaJZe0HgwEuxK" name="Page-1">
    <mxGraphModel dx="3145" dy="2608" grid="1" gridSize="10" guides="1" tooltips="1" connect="1" arrows="1" fold="1" page="1" pageScale="1" pageWidth="850" pageHeight="1100" math="0" shadow="0">
      <root>
        <mxCell id="0" />
        <mxCell id="1" parent="0" />
        <mxCell id="pYnr8Tc2lTxlnqV0wQ_2-9" value="mysql db" style="shape=cylinder3;whiteSpace=wrap;html=1;boundedLbl=1;backgroundOutline=1;size=15;fontFamily=Lucida Console;strokeWidth=6;gradientDirection=south;fillColor=none;strokeColor=#82b366;" parent="1" vertex="1">
          <mxGeometry x="1100" y="415" width="110" height="128.75" as="geometry" />
        </mxCell>
        <mxCell id="pYnr8Tc2lTxlnqV0wQ_2-22" value="sftp site&lt;br&gt;" style="shape=cylinder3;whiteSpace=wrap;html=1;boundedLbl=1;backgroundOutline=1;size=15;fontFamily=Lucida Console;strokeWidth=6;gradientDirection=south;fillColor=none;strokeColor=#82b366;" parent="1" vertex="1">
          <mxGeometry x="715" y="-50" width="150" height="155" as="geometry" />
        </mxCell>
        <mxCell id="pYnr8Tc2lTxlnqV0wQ_2-23" value="server backend" style="whiteSpace=wrap;html=1;aspect=fixed;shadow=0;labelBackgroundColor=none;fontFamily=Lucida Console;strokeWidth=6;gradientDirection=south;fillColor=#60a917;fontColor=#ffffff;strokeColor=#2D7600;" parent="1" vertex="1">
          <mxGeometry x="707.5" y="250" width="165" height="165" as="geometry" />
        </mxCell>
        <mxCell id="pYnr8Tc2lTxlnqV0wQ_2-38" style="edgeStyle=orthogonalEdgeStyle;rounded=0;jumpSize=6;orthogonalLoop=1;jettySize=auto;html=1;exitX=1.01;exitY=0.805;exitDx=0;exitDy=0;entryX=0.006;entryY=0.448;entryDx=0;entryDy=0;fontFamily=Lucida Console;fontColor=#CCFFCC;startArrow=block;startFill=1;sourcePerimeterSpacing=15;targetPerimeterSpacing=49;strokeWidth=4;strokeColor=default;dashed=1;exitPerimeter=0;entryPerimeter=0;" parent="1" source="pYnr8Tc2lTxlnqV0wQ_2-26" target="pYnr8Tc2lTxlnqV0wQ_2-23" edge="1">
          <mxGeometry relative="1" as="geometry" />
        </mxCell>
        <mxCell id="pYnr8Tc2lTxlnqV0wQ_2-41" value="Encrypted data" style="edgeLabel;html=1;align=center;verticalAlign=middle;resizable=0;points=[];fontFamily=Lucida Console;fontColor=#CCFFCC;fontSize=15;" parent="pYnr8Tc2lTxlnqV0wQ_2-38" vertex="1" connectable="0">
          <mxGeometry x="-0.1019" y="3" relative="1" as="geometry">
            <mxPoint as="offset" />
          </mxGeometry>
        </mxCell>
        <mxCell id="pYnr8Tc2lTxlnqV0wQ_2-42" value="The client application is ran in a docker container, the client front end makes calls to the client backend within the container, which will&amp;nbsp;&amp;nbsp;" style="shape=note;whiteSpace=wrap;html=1;backgroundOutline=1;darkOpacity=0.05;shadow=0;labelBackgroundColor=none;fontFamily=Lucida Console;strokeWidth=6;fillColor=#d5e8d4;gradientDirection=south;strokeColor=#82b366;gradientColor=#97d077;labelBorderColor=none;fontColor=#121212;" parent="1" vertex="1">
          <mxGeometry x="-220" y="32.5" width="210" height="250" as="geometry" />
        </mxCell>
        <mxCell id="pYnr8Tc2lTxlnqV0wQ_2-50" value="" style="group" parent="1" vertex="1" connectable="0">
          <mxGeometry x="10" y="32.5" width="215.24" height="365" as="geometry" />
        </mxCell>
        <mxCell id="pYnr8Tc2lTxlnqV0wQ_2-5" value="front-end application" style="sketch=0;pointerEvents=1;shadow=0;dashed=0;html=1;strokeColor=#2D7600;fillColor=#60a917;labelPosition=center;verticalLabelPosition=bottom;verticalAlign=top;outlineConnect=0;align=center;shape=mxgraph.office.devices.lcd_monitor;fontColor=#009900;gradientColor=#ffffff;gradientDirection=south;fontFamily=Lucida Console;container=0;" parent="pYnr8Tc2lTxlnqV0wQ_2-50" vertex="1">
          <mxGeometry x="50" y="30" width="100" height="90" as="geometry" />
        </mxCell>
        <mxCell id="pYnr8Tc2lTxlnqV0wQ_2-7" value="client backend" style="rounded=0;whiteSpace=wrap;html=1;fontFamily=Lucida Console;strokeWidth=6;gradientDirection=south;fillColor=none;strokeColor=#82b366;fontColor=#FFFFFF;labelBackgroundColor=none;shadow=0;container=0;" parent="pYnr8Tc2lTxlnqV0wQ_2-50" vertex="1">
          <mxGeometry x="40" y="280" width="120" height="60" as="geometry" />
        </mxCell>
        <mxCell id="pYnr8Tc2lTxlnqV0wQ_2-16" style="edgeStyle=orthogonalEdgeStyle;rounded=0;orthogonalLoop=1;jettySize=auto;html=1;entryX=0.5;entryY=0;entryDx=0;entryDy=0;fontFamily=Lucida Console;fontColor=#CCFFCC;startArrow=block;startFill=1;sourcePerimeterSpacing=15;targetPerimeterSpacing=49;strokeWidth=4;jumpSize=6;" parent="pYnr8Tc2lTxlnqV0wQ_2-50" source="pYnr8Tc2lTxlnqV0wQ_2-5" target="pYnr8Tc2lTxlnqV0wQ_2-7" edge="1">
          <mxGeometry relative="1" as="geometry" />
        </mxCell>
        <mxCell id="pYnr8Tc2lTxlnqV0wQ_2-26" value="Docker Container" style="rounded=0;whiteSpace=wrap;html=1;shadow=0;labelBackgroundColor=none;fontFamily=Lucida Console;fontColor=#ffffff;strokeWidth=6;fillColor=none;gradientDirection=south;strokeColor=#006EAF;verticalAlign=top;container=0;" parent="pYnr8Tc2lTxlnqV0wQ_2-50" vertex="1">
          <mxGeometry width="200" height="365" as="geometry" />
        </mxCell>
        <mxCell id="LIlcAr5X8soDFpDNZf75-2" value="" style="shape=image;html=1;verticalAlign=top;verticalLabelPosition=bottom;labelBackgroundColor=#ffffff;imageAspect=0;aspect=fixed;image=https://cdn0.iconfinder.com/data/icons/social-media-2127/48/social_media_social_media_logo_docker-128.png;shadow=0;labelBorderColor=none;fontFamily=Lucida Console;fontSize=39;fontColor=#000033;strokeWidth=9;fillColor=default;gradientColor=none;gradientDirection=south;" vertex="1" parent="1">
          <mxGeometry x="170" y="-30" width="75" height="75" as="geometry" />
        </mxCell>
        <mxCell id="LIlcAr5X8soDFpDNZf75-8" style="edgeStyle=orthogonalEdgeStyle;rounded=0;jumpSize=6;orthogonalLoop=1;jettySize=auto;html=1;exitX=1.015;exitY=0.21;exitDx=0;exitDy=0;entryX=0;entryY=0.5;entryDx=0;entryDy=0;fontFamily=Lucida Console;fontColor=#CCFFCC;startArrow=block;startFill=1;sourcePerimeterSpacing=15;targetPerimeterSpacing=49;strokeWidth=4;strokeColor=default;exitPerimeter=0;entryPerimeter=0;" edge="1" parent="1" source="pYnr8Tc2lTxlnqV0wQ_2-26" target="pYnr8Tc2lTxlnqV0wQ_2-22">
          <mxGeometry relative="1" as="geometry">
            <mxPoint x="211" y="89.90499999999983" as="sourcePoint" />
            <mxPoint x="699.9899999999998" y="90.00000000000009" as="targetPoint" />
          </mxGeometry>
        </mxCell>
        <mxCell id="LIlcAr5X8soDFpDNZf75-9" value="files" style="edgeLabel;html=1;align=center;verticalAlign=middle;resizable=0;points=[];fontFamily=Lucida Console;fontColor=#CCFFCC;fontSize=15;" vertex="1" connectable="0" parent="LIlcAr5X8soDFpDNZf75-8">
          <mxGeometry x="-0.1019" y="3" relative="1" as="geometry">
            <mxPoint as="offset" />
          </mxGeometry>
        </mxCell>
        <mxCell id="LIlcAr5X8soDFpDNZf75-11" style="edgeStyle=orthogonalEdgeStyle;rounded=0;jumpSize=6;orthogonalLoop=1;jettySize=auto;html=1;exitX=0.5;exitY=1;exitDx=0;exitDy=0;entryX=0.5;entryY=0;entryDx=0;entryDy=0;fontFamily=Lucida Console;fontColor=#CCFFCC;startArrow=block;startFill=1;sourcePerimeterSpacing=15;targetPerimeterSpacing=49;strokeWidth=4;strokeColor=default;exitPerimeter=0;" edge="1" parent="1" source="pYnr8Tc2lTxlnqV0wQ_2-22" target="pYnr8Tc2lTxlnqV0wQ_2-23">
          <mxGeometry relative="1" as="geometry">
            <mxPoint x="222" y="336.3249999999998" as="sourcePoint" />
            <mxPoint x="710.9899999999998" y="333.9200000000001" as="targetPoint" />
          </mxGeometry>
        </mxCell>
        <mxCell id="LIlcAr5X8soDFpDNZf75-12" value="Encrypted data" style="edgeLabel;html=1;align=center;verticalAlign=middle;resizable=0;points=[];fontFamily=Lucida Console;fontColor=#CCFFCC;fontSize=15;" vertex="1" connectable="0" parent="LIlcAr5X8soDFpDNZf75-11">
          <mxGeometry x="-0.1019" y="3" relative="1" as="geometry">
            <mxPoint as="offset" />
          </mxGeometry>
        </mxCell>
        <mxCell id="LIlcAr5X8soDFpDNZf75-13" value="" style="aspect=fixed;html=1;points=[];align=center;image;fontSize=12;image=img/lib/azure2/compute/Azure_Spring_Cloud.svg;" vertex="1" parent="1">
          <mxGeometry x="872.5" y="250" width="50" height="47.06" as="geometry" />
        </mxCell>
        <mxCell id="LIlcAr5X8soDFpDNZf75-16" style="edgeStyle=orthogonalEdgeStyle;rounded=0;jumpSize=6;orthogonalLoop=1;jettySize=auto;html=1;entryX=0;entryY=0.5;entryDx=0;entryDy=0;fontFamily=Lucida Console;fontColor=#CCFFCC;startArrow=block;startFill=1;sourcePerimeterSpacing=15;targetPerimeterSpacing=49;strokeWidth=4;strokeColor=default;entryPerimeter=0;" edge="1" parent="1" target="pYnr8Tc2lTxlnqV0wQ_2-9">
          <mxGeometry relative="1" as="geometry">
            <mxPoint x="870" y="333" as="sourcePoint" />
            <mxPoint x="865" y="509" as="targetPoint" />
          </mxGeometry>
        </mxCell>
        <mxCell id="LIlcAr5X8soDFpDNZf75-17" value="messages, contacts, etc" style="edgeLabel;html=1;align=center;verticalAlign=middle;resizable=0;points=[];fontFamily=Lucida Console;fontColor=#CCFFCC;fontSize=15;" vertex="1" connectable="0" parent="LIlcAr5X8soDFpDNZf75-16">
          <mxGeometry x="-0.1019" y="3" relative="1" as="geometry">
            <mxPoint x="2" y="1" as="offset" />
          </mxGeometry>
        </mxCell>
      </root>
    </mxGraphModel>
  </diagram>
</mxfile>
